<mxfile host="app.diagrams.net" modified="2021-04-11T14:26:33.996Z" agent="5.0 (Windows NT 10.0; Win64; x64) AppleWebKit/537.36 (KHTML, like Gecko) Chrome/89.0.4389.114 Safari/537.36 Edg/89.0.774.68" etag="s_Cfih2dS5NvWmEGDQXQ" version="14.5.10" type="github">
  <diagram name="Page-1" id="c37626ed-c26b-45fb-9056-f9ebc6bb27b6">
    <mxGraphModel dx="2370" dy="1323" grid="1" gridSize="10" guides="1" tooltips="1" connect="1" arrows="1" fold="1" page="1" pageScale="1" pageWidth="1100" pageHeight="850" background="#ffffff" math="0" shadow="0">
      <root>
        <mxCell id="0" />
        <mxCell id="1" parent="0" />
        <mxCell id="Z-BFIiCPnP5V-GsEb7PY-30" value="" style="rounded=0;whiteSpace=wrap;html=1;fillColor=#FFFFFF;" vertex="1" parent="1">
          <mxGeometry x="150" y="20" width="940" height="790" as="geometry" />
        </mxCell>
        <mxCell id="Z-BFIiCPnP5V-GsEb7PY-1" value="" style="rounded=0;whiteSpace=wrap;html=1;fillColor=#99CCFF;" vertex="1" parent="1">
          <mxGeometry x="185" y="660" width="870" height="90" as="geometry" />
        </mxCell>
        <mxCell id="Z-BFIiCPnP5V-GsEb7PY-2" value="边缘设备层" style="text;strokeColor=none;fillColor=none;html=1;fontSize=24;fontStyle=1;verticalAlign=middle;align=center;" vertex="1" parent="1">
          <mxGeometry x="205" y="685" width="100" height="40" as="geometry" />
        </mxCell>
        <mxCell id="Z-BFIiCPnP5V-GsEb7PY-4" value="" style="shape=image;verticalLabelPosition=bottom;labelBackgroundColor=#ffffff;verticalAlign=top;aspect=fixed;imageAspect=0;image=data:image/png,iVBORw0KGgoAAAANSUhEUgAAAF8AAAAuCAYAAABOMsWRAAAgAElEQVR4AcV7B3RV17Wt/0uMUO/1XlXUG0JCEr0HA8bYuIFxL7jGDVPc45i4JCE23aYXUSWQQAgQ6hLqQr23q96RQHQD9nxjrqODFb7zkoz3468x1jjnnnav5pprrrXX3ueevIEi/H+x/iLk9hcip68A2b35yOrJR07fOeT1FyKv/1f6Tfyef2iFyu87fw7ZfQXy23LOn5Nj/69+3z091/vQc+NXNH7f9T50X+9F4/lmFNQVIOJEBPae2If8unNov9Qp5+V3DV07fL/3xnn869aH3ht323nl+6/1ovtaDzqvdqPzShc6Lnei41IH2sXa0TbYDt15HUqbSpFalI7M8iwUNhShvrdR7hv+m+7sE0f1N/8LmN7z408/4te02z/extVr11FSVoq1m9ZgwcJ5WLBwPh5e9BCefekZHIs9hqvXruLWj7cVu30Lt2g/DtntW/jh1k1cvX4d165fw/Ub13Dt+lW55/KVyxi8PIiBC/3o6+9Db183Orva0dVNa0N3dzt6ejtkn587OlvE2tp1aG1rRGtrPVpbG9DW1oi29kY0NdWguCQPqekJiDsVjcgj+3HwcAQORe5HbFwMUtKSUVpRivaONly4eAE3friBm7duyu/l//nPcL3nJ/yEX+Pvp59+wq1bt3D5yhVkZmXjoz98gOmzp+Kdd5chJycPaelpeGzx43h0yWIUl5ajo7MLTc3NqG+oR21dNZp0tWhvb0RjYx0Ki0qQkZmJzKxUFOSnIz8/DcXF2Sgry0N1dSEqK86hqqoYVVVFqKwsQnV1MerqStHUWInGhgo0NlSisbEKDfUVaG6uFdCbmqrR3FyDttYGtLbQCfVobqqV/d6eNvT0tIozSksLUFqSj5ycNGzZuhHrN/wN6zaswdp13+B0/EkkJSegtq4Wly9fURxBZ9xSCHT79m38+OOPIBb8+1XA55ddunwJJaXFiD1xHB9/9gEmT5+ARx9bhF27duBYTCROxh3F4UO7sGXrWhyO3I3jxw8gKmo3Dh3agYMHtyIqajtiYnYh9vhenDp5CPHxR5CYGIPU1DhkZyeioCADZWU5qKwoQGXlOQG8ob4cjY2V4FanqxKgGxuqoGusks9kNq2luRbNTTVyvqW5Dq0tijXpapTjvE7H6+rQLOfr5ZrOzib09bbJueLiPKSkxiM6+hD27d+Fnbu3YU/EThw9Gon4hFMoKj4Hna4RPT09uHHjhjjgPw4+gb948SI2bt6AyVMnY+GjD2HKzAlwdnPCpIkTMHPmdDwwfx6efnIx3nn7dby/6l2sW/slvtu8Bjt3rsPBA1sQFcV/YheOH49A3IkDiIs7iNOnI5GYEC3g5+QkobgoC+XleQJ8VWWhsL5xCHQyvEmnAC6sH2I+2a7TkfF1CrBNtcJ8yk7LkAPa2urR0lIvxzvadRJ97e06EPjuzhZ0d7Wip6cd5893i/X2dqCtTYfm5gZU15QjKysNsXHHEB0ThfUbv8Vnf/wUMcei0dfX959nPsHPys6Ci6sz3Nw9MH7yBNhpbGFoYgRTc1PYax3g4emOgNH+CA8LxbSpU/HYIw/jqSWL8dorL+KDVcvw5ZefYsuWbxCxdzNOxO5HwpkonDkTheTkY8jIOAUBvzgLxcVZIj1VVYWori5CTU0J6urKUFdbhoYGhf1NOgJeBW4pOQRZBZd6397ehI72JhDgru4WdEuuIMBtILC9fZ3o6+sUoPvP96C/vwcDA70YGOjDhQvn0S/7vYoz+rpxvq9brunqahWZfPnV5zFpyjh8v2Xzfx58aty6jWthYWmB4PAQePt7w8TcFIamxhhppA9DUyMYm5nA1MIEltaWsNfYwdfPB0FBgZg2bSoeXvggnnvuKbz9zhtYvvwdfPPNl9j83TfYtWuTSFNi0nHkZCehvCwXJSUEPxcEv7a2GPUN5WhorEBDQ4XICxnOvNHRQXAVgDs7CHA7ens70dPTIWAN9Peiv78XAxfO48LFAQGWxwgw7Xw/Qe9FX183enqU+7q7W9Hd1YaOjmZJ2DpdDShx9XUVQgISgXIYGbUXk6aEYf4Dc34d8N9Z9jZs7G0QFBYCG40tjEyNxQxMDaBvYiBRYGBiCCMTIxiZGoH7JmbGsLC2goOjA4LGBOK+ObPw9LNP4uNPPsAnn3yAzz//BF99vRpr1/4F+w/sxOlT0cjPz1CAbq4G5aKtjUymVDShs7MFPd1twsi+82SjAu7AwHlh7MWL/bhwoR8XBy/g0qWLGBy8gMGLF3FxcAAEvre3S5zT2dUqFVJLayOaW+rR2FiNuvoKia7qqmLJOWWluSgqyhTLL0hFXl4K8vNTJELT009h7rwZmDQ57N8DnxIy3P6VKokZ/oUXn4etxgGefp4wNjcWYI3MjIT1+kYGsmUE0AzMCL4RjMVBJuIQAyMD6BmOhKWdNby8PTFlykQ8++xTeGfZW/jiy8+xdu03+O67TThy5DDi408hJzcT9Q3V6OpqQ09vl7CV4A4ODmDw0gVcujwoAF++MihgE3Qyuv/8EJt7OyUaKBUsQRt11aivK0dtbSmqqotQXp6PkpIcFBVlSaWVm0twU5GbmwzuUwbPno3H2cx4pGecQsbZU7LPbWJSDO6bNw0TJoX+MvgqwJQMGgFUjWWTus8tP1+7dg39/f3o7SVD+A/0SVZvaWlBYWERFj7yMEZ5ecDRzQlmluYwtzKDmYWpAExgyXhDU0MYmhrAwNRQmK9vrESAnDMxhKGZEfRNDDHCcKSSLyzM4OjshPBx4Zg77z68/8FKREYdRtyJE4g7GYeTJ+OQn5+L7p7OIUZTPqjJPSIb1G6Cy+TY1FwnFZCAS/ZWFQrALF+ZR84VZqCgIE0YTGBZXWVlJSAr6wzOZp7B2bOnkZ5+EmnpJ2WbnnYCaamxSEuLQ2raCbGU5GNITT4u4M+aPQmTp477v8En8CrgUp/euoWbN2/+HeAq+Dxf31CH/Qf34bM//gHLV7yHVe+vwmeffYavv/4ay5evwOOPP46ZM2di2rRpCA4JgY+vD3z9fcVcXF1hZmEOAxMD6Bvrw8CYWwPoGxlipKEBRhrxs+IMOkUiw9hIwDc0MZatnqE+9AxGwsnVCW++9Xvs2xeBfRER2Lp1CzZv3oSUlEQBuK1VB11TrSTgispClJXnoag4CwUF6cjOTRYwBcjMeGQOAUpQaZmZ8ZLY0zJOCpPTM04iNT1OwFVAj0Nq6gmkpJ6QIiBt31ak79+G1JORSN2/DSmRu5G+fSPSdmxE0pmjmDlrEqbNmPD34KvAE1QC/sMPP0hNevXqVWF0o06HyspKsXOF53D48GEsffklhIWHws/fF94+XnD39IC7xygEBwdj6tSpmDx5MiZOnIhx48bJsdGjRyMoKAhhYWEIDQ2Ft483rGysBGg9QwOMMNRXgCf44gB9cQgdZCCOUGTpzr4p84QJjM2M4evvg3feeRsrVyzH66+/ipdeegEffrQKCYmxIgeUgOSUWCSlHENSsmKJidFITo5BQmK0sJLHk1OOIynpGNLSCWrs0Jbgxios5jPk/uNITj6OpJTjSEyOkW3y0T3I+mA5zn61GhlfrUbOn/6AnDdfR9bK5cjYtgkpSTGYNXsKZsya/Pfgk/EEnXa+/zxSUpOxe89ubNy4EZ9++imeffZZzJs3DwsWLMCjjz6K2bNnY9KkSZgyZYqw+7777sPceXMxY+YMeHp7wcPDA0GjR8M/wB8+Pj7w9vYW8/X1FQfQEdz39PSUknOkkSFGGIzEvQZ6YtwfYaAHspvRwPzAfKBvYoSRxoZKVDBXmJhI9WRmZY5x48Iwd859Mn6YNnUy5s6djS1bv8Xp+EjEntiP6GN7cTw2ArGx+xAbu1/s9OnDOHnqIE6eOoRTpyPFzpw5KoO4hAQ6RXVUjByjbicmRYvDVKdxm5AUg4zt65G7/C1kr1yOnFdeRta2jchc+zXO7voe6WmnkJp+EnPmTcfsOdN/Bp+sp5xw9JWdk41HHn0Ezs5OsLKygq2trTD1paVL8dRTT2H+/Pl46KGHxAGPPvaYSMvixYuxZMkTWLJkCZ5++mnwc8DoQLi5uQnjx44dK+wfP378HYcxKhgRjAyas4sLDIyNoWdA9uvjtyP1xO7Vp0NGQo/gGxtB8gGTsxoJQw4wMDGGk5MjggIDEODnCz9fH4SHBeOvf/kDjkbvwuHIbYiM3IaoI9tle+jwVjnOc9Exu3GMTjmxH3En6YiDOHX6ME7HR4kpgMfgTMJRiRAV7KTk4xIpicnHkJIWh8xdm5H92Yc4G7EVGVF7kJFwDGdzk5GZnYic7ESkpZ/GvPtn4oEFw0pNlfV5eXkiB6amprC0tIS1tbWA7+joiOeeew47d+7Exx9/jGeeeUZApjMINreqPfnkk+KEBQsegJe3N4LGjMGUKVNFhhglBHrChAmgI8LDw2WfnylH1ra2IIgm5iaypQPuHTkCigP0QWlScsGQDBkbivYbmRhLRNjY2cJ9lKuYm6szRgf6YfXqVYjYtxE7d63Frj1rsSdivVhExAYcOPgdDh7eisNR28URMRIZ+3Ai7oBES/yZKMSfOSJMVx2QlEzmHxONT02Lu7OlrGXGH0Xu9+uQfTIKWXkpyMlNRn5eGvLy01BYlIlTp45i1uypePCheQrzVda3tbUJo81MTYXxZmZmoBO4tbGxEXlYtWoVDh06hPfff18AfuKJJ4TlixYtkkh4+OGH8cADD2Du3LkiS9R1RydnhIwdi9DQMISEhAjIAQEBdyTHy8tL5Ijy4x8YiLHjw2Btby2yQrlRI0Acoa+HEYwMJuU7UmQMQ1MTiQhLa2u4uDjB1cUJzs5a+Pv74JNP3sWOnX/D91u/xpatf8bWbX/Bth1rsGMnB2trEbFvEw4c/B6MhKioHYiO3n0nAsh+sj0hMQYqy5lcCXpGxmkxlpXZOUnIzEqQMjP37Bnk56bi3LmzOFeQgeLiHLHy8gJERe3DtBkTseChuT+Dz+S6adNGAZlSY2xsDAMDAzF9fX0YGRlJFIwZMwYfffQR1qxZg8ceewzU+VmzZmH69Omi/WQ12cyESyYHBgbC0ckRtva28PRS8sCoUaNEjlxcXODs7HzHnJycwGPTfzcDYZPDROcNCLKBPu7V08NvaSP1MEJ/pEiTnoGSlClD+ibGIlkcJRN0F2c+y0nA/+DDN/Hd919hw6Y/YcPG1bLlZzph+46/Yfee9dh3YDMio7YNyZACPnPA6fgjAjwTdWqaUu2wfmcFxJIzJycZeXlpUjWxcioszEQhS9SSXJSXFaCqUumssstaU1uGQ4f2YubvpuC+OTMU8Ck5XV2dmDNnDqysLIXtBJ6g00aOHAk9PT0YGhrC3t5eZGPFihUiQ9RyJk6C7O/vL2xmciWbaWTzqFFu0sdxcHAAAR5ulLPhptVq4ebhjqCxQbC2txWQ6YAR+nr4DeVnCHwmYyZihf0sR5kDjKRFIeC7OsHF1Ql+/t5YvuIVrN/wOTZs/BwbN/0Jmzb/CZu++wKbv/8S3235GmvXfY73P3wL7y1/HX/440rs2btJkq8iNzFSIbGGJ+hZ2WR3sgyqCDbZXVScjZKSXJSVFaC87NxQG7sEVdLKrkAdWwy1ZTIaXrduDcLGjcEbv39FAZ+lZUpKsgBIjVeBJ+gEn8CPGDFCnEJw3N3dxVFLly6VhEmAVWOFM3yf1/KYRquR/s5woLnP59EpdKpqdvZ20Lo4wcPHE2aWllLJEOj/0iP4I4X5Aj6Zr2+gyJBUP0awtLGGswDv+DP4K1/B3775GB999HusWPEqVqx6FS+98iTmz/8dpk2fiAmTwjB6TAC8/bwQHBqEP6/5DGcSjkg5SXk5e/YMsrITkZefKgwn4CXFOSgvy0dF+TlUVJxDaWk+qmtKBOQaNvMaKlFTU4ZGXS0aGtiCqERzcz22b/8O4yeG4MjRwwr4lJyNmzbCzc1V9F0FffiW+0zABIig+fn5ia5TZgiuagR7uFFiXF1dRWbMLCxgZ28PrUYjgLOKsrOzk4TOnDLcyHpPP184uriIA8ytLPF/7r0Xv9Uj+EriHUHwDYxlbMBETPmxsrWGk4sjXNzIfGe4e7hi8pRxmDFzsgDs6KiFg9YBWhdHOLo4ybWOLo5w93LHKM9R8Pb1wl/XfC5JlH0YheVpKCw8q0zYlOajtJSt60JUVhWjoqIQ9fUVqK4pFYAbG2tQU80uKlsSldA11UHHlnWbTloe69avwaIlC5Gdl6mAz0HUF198Aa1GCxMTE9F3SowaAdzyM4EiSzUOWowa5S5VEasX1uoEWTWCTe1WNZ0yQ22nHpubm98Bm1H2S2ZlaQUnFyf4BPrD2WMUjM3NpKL5rd69+I3eiDu6r0qPviFHxMqo2MLaUu7liNeZ4Do7wtbBHtZ2trB1sJN2to29LSxtrcVsNXZwcNZC66KFjYMtXN1dsWHDX5CTm4TcPCVpMmFSv0tL8lBdVSJWU10i4BJoAk5rqK8WppPtzS0NaGlpRFtHE1rZ2OtuQ0VVCZa99yZWfbgM7e2tCvjnz/fh/fdXQaPRCPisbugEJl0mWhpBo0RQPjQO7nB3DYGfv5+MYJmEhwM9XFp4j/rZzs4WZuZmUkkRdCb2u8HnMUaYo7MzPHy9YWlni3v12XowlDKT0iPVj76e5AMZETMpD8mOla2NAO7k6giNkxb2DvawslPAtrCxAs3c2hJmVjQLuHmNkr4TneDo6oSAMf5Y882XSE+PFx2npFDLa6pLUV1dgtpazgvUoa624g7oBLq5tRFNzQ1obmlEa5sO7Wwts23d0Yx2Trr0tCMvPwuvvfESNm9Zh97eocmUtrZWvPb6ayIPBIjhTwAsLCxEhugEsp6M5iDGRROKQJ/n4B8wBuPHh8sAjOcI9N1Gh9K0dJrGAabmZvJcq/8BfCsra1jb2MDa3g4mFmaSZFn7c/ClMv9eA0V69AwNoSclpxFMzMzgoNVA66SFxtEBdhoH2Nrbw9LWFhY21jC3shIJM7Ewl2gyMjODvbMjLGxtoHF1wphxIbhv/mw8/dwSvLfibaSmxEtPvraGHU0F7Pr6amF1U3O9bAk02d3WTrAJehPaO5tlq4LPifrO7lbExkXjpZefRWJyPHp6exXm63Q6PP/C89ICYIVCFlNeqMlkIiOB7JXKxc0dHtrfYe7svQgLfwRjxgTIiJU6fzfw/KyCr245ezWc/XT0cPar0WBlaSk9G+o4S0z2eYTxehx0se3ANvOQ3BgZQ9/YGKaWFrCnppPxjg6w12pgq7GHNR1gZwsLaxuYWlrBxNwcRqZmMLGwgIOzE7z8fRA2IQyjQ4MxdnwowieOQ3B4MNat/9tQ17MeBLullascdMJoAbtNYXbbEMtVsFXWtw6dV1dJ7N67He8ufwPFpUXSK5M53KamJrz44osyAGKvhhpOJhMwOoBRQM1mR9LLwxv+rg/jxcVnMH3GUowODJTSk/eoYKsyo35Wt3QoW8qmZmawslYkRwVblaE7n62sYGRiAtbyvxlxL/QMDEV+CDyPKSNdlpcK8OxyUk4cnDQiN47OjnBydYETo9XVGQ5OTmI2Dg4wsbCEnVYLD29PhE4IR+j4UAQE+cPZfRTstBoEhIzGuMnj8P3WTcLin2WkGR2drejoaBEHEFSRFUpLuyIvZD0jQQG8Vc53dLWiprYcq//0KdZv+BYdHZw5G2I+Z9SXLXtPWgDs23BUSjDZlyGQZCf3pUHm5YsxLo/gvSeS8cbLuxESHIbw8DBwxEqQ/5lZWluJPFjepfcEXQVe3ZpZWELfyBj/NYI6PxK/NWBZqTCex/VNTGRwZWTMuQEzUO+1zk5wdnPBKE93jPLxhicbdz7e8PD2hpevD3wC/OHh7SNVlKvnKDi6ucLF3Q2+AX5w9/KU40GhwZg9bzZOnj4ma3zIYJXVBJ7SwiRK9qusphM6OhXjbJc64yWOa2/GucJcvP/BMuzeswMdHZ0Y6B9QZOfSpUtYvXq1MJgNM45W2QZgF5IRwPKSUsQE6+friwDnmXhzTjQ+ei0FY4LHIyQkWAZYdJQqL9yqjB9+zMrGRhitAswtI4vMp5PVUtbZ2QUW1tYYaWSE34wciXsN2fE0hIGxiWImnAc2g6GpAjz129LORpju7u0JH38/+AYEwC8wAIHBQQgOG4sJUydgwuQJCA0Pl4GcG9vf3p7wCwrE5OnT4BsQCGc3N4mGx5csQmnZOXR0tSiaLuCqi6wUZ0gUDLGfwNMpPKYCT+cQfFY9UUcOYPUXnyI3Lxs9Pd0YHBxUwGcnc/369TJSZbv4/vvvl6YXR6yqlhNAyg779r4uIZjn9wm+eCIfk0MfgD+P+frKyFVl/i+BT9lhojU0Nr7DclXvmdBZknJ0zNYER862Dg4iNdR2A1NTGJiYiVYbmZnD2MwCxua0oeRpbg5rB3u4e3nAJ8AP3iRKYCBCQoNFQiZMnYhxk8Zh/KTxGB08RsD38ffF6OAgjB0XJlu/gABMnTEdv3/n99i5ZztaJYE2D7G8SSbHVZlRGc8Jc84PK8z/ecsIUSbTdaipKUfEvl04cTIW7e1tGBgYwJUrV3APm2o/3LyJQ4cPC9vZFCP72e5ly4BJlowmI5mMObjy8fBDoP19eHHCfswLfQGe3h4CGsFTwVe3KutlfKDV3AHf1tZOnsvIooMJOktW9oXYZg4JGQsrG1uRFiMmSIJMwM0sYUKzsICxhSWMxAEWct5GwPcU+fAN9EfouDCMmzgOYRPCERI2FkFjgxEQGAgPL084u7qIRDEfcALIN8AXTz39JI5ER6KotEAGR6rUtIvU/AxsV7fCbgGcETGUA3i9VDxcftjaiIaGGtTVVqGsrBSlpSVgVcl5EioNp15lrSbbC4VFRdIYmzFjBhYuXCj7bIwRcCZbgk+gyHAvL094aH0wyeVljPdZAg/PUfDx8ZbrVND/0daKJZ+lpUgawWZ+UQEn6GT8GH6vtw/Mra1hbmMNE+YJVikWNEsB3djKUo4ZW5jDxNwC5tZWkmA9fb1F1ykzIeFjERg8WiJhlIeHjB3sNVo4OHJQ5SxRMnnaJCx56gmsXf8tUtMTf9Z2YfNQnS6Sw+SpyI4iK0odr7KbqyS4vrNRV4PKqlKUlBSiuLgYlZUsURvR1dUl89yUGw5qqTb33B6aIGf2ffDBBRLybAtzzlUFn4ymLJDFjAS2ElzdXOFs5wZ3jZ98JnPpJJXpBF+terjlOTqPfRt7jUYAZ2tC7enTCfw+Pl8SvbMTbDQOUqObWdnA3GqoTre2hqmVFUwtLaVsNLe2gb2jI1w93KUX5OPvA//RgfDi73F1kbrfzsFeyk6yPCAoAJMmT8TSl1/At2v/irNZqWhpa5RqhYmVbQCp21m7D+m8KjXcSjTIchQuSVGM64HKy4uQm5uN9PQ0ZGVxAVcxampq0Nraiu5uLlXpF8arwHO28B51Mvz69ev485//LIxkL56yQ80nEARSLQXpCLVfwwEXeyWUDSZndZTLLe/jdTxHQHmeUaRxdISTiwtCgoNF5tgRZaVE5/F6OonOsnNwgI29A6xt7WFpYwcLGzuRIYJNlltY2UhO0Dg7SYXCisXV3Q3OLCtZ62u08j0+fr4YGxqC+Q/MxRtvvYaNm9chOTURJWXnlATJhNreBK7DkcpEKhYyXCkfFbAVvedKtla2DbjaQVeD0rJCZGalIzExAUlJiUhPz8C5c1yky6WJOnR0dMhKjgsXLuDy5csiNeyjUWmI+z2ylPnHH+XA6dOnBQQ1/AkawSDrWZVwsEUn8BhNZTmBJriMCALMfcoT8wMdSHBp3Lezd5DJFfV6As77VdAdHZ3goNFIdNg5aGBLB9jZw8rGDpY2bBPYwIrNOAcNHLRK7e5AZw3d4+LmAndvD1kdERYehuUrlmHP3h1IS08USWjhEvD2RnBLoza3tDSgrbVRBlSdBF/q9ia0c5DUThB1AjoTZ2FhLlLTknDqVByOxx7HyVMnkZbGfn6BLCxoaOASc65q5jLCgb9j+3Dg2ca/Az7DoLOzE5yZIuhkIhlMgDnQYquBs1rs87A0VIFXy1CCrQLNRE1T+/zqZzqDbQOyks9mFJHljCyCT0dwOQllyUGrVUaoDir4tjC3sYGVLRtkGthpHWGr0cLGTiMRwRYBI8ovwA+BowMQEBiA++fPRVZ2Opq56JVgc5RKa1EXv+rAJSUtzQ0K0K06cDEsjddzqTjbwgUFWUhIOI2YmGhERh5GdHQ04uK4soGr0fJQXl6O+nouK/9ZYqjtrGioKASd+KqMJ+sV8IcWRPEkL9q3b59IhauL0qtRR7hkvTq7xR4/G288x6ggkGS2CvLwrcp4OoYT5Ey2ajJWHcjPHp6eMo7QOpHF9iIdHG2yNWBhYwszK3YhbQV0jk4ZDZbiDHtxiA0LglGjEDjaH0GjA+Ht7YWVK5ZB11gtrKVcNOnq0NJEUBvFCLyyT+YzCsjaBmkRk+FnzpxEVNRh7N69C3v37pWlMgQ9JYWr0zh5Uoa6Oi605XpPrlI+LyuyqesEnUlVBf1u4FllCvPpCRX89vZ2PPLII8JsDnpUxhN4tpXZ11cnV9hqJvisWjgoI8A0RgGN0UN5Uc3UwkIAI9vJesoNZWrylEmYPnOagO8yyhV0APvqXGJoYm4JM0tr2Gi00Lg4w8pOo+i/rdKzsXHQSG6wc9TKOCQ0dKyMuEcHBmDDum/Q3dGK9pYmtLXo0NzEdfWNIjFkv7z8QNDb+BZKLYqL8xEfH4eIiL3YtWsndu/ejQMHDuDo0aM4deqUMP1u0NUqhsvgVaYT9OFsJ/BkOgGnqX/38CCNF/CmK1euypeNDhoNayvrO1JD4NUpRdUBlCECyRVprFYI8nDAua9qv1brKEnS3cNDQA4KGo2wsLGYNGkKPvjwQ3z11Zd4+dWlmD5zOrzYFvDxkkaYrUYjo1YHraMkXksbe9jYU3a0ShQ4KHrv6Fhb2GEAAAZmSURBVOIs3dXpU6di1ozpmD17Fo5EHUJ3Z6uSJFvqZS2+rqn6zoplrs0vKc5HWloSDh06iF27dmH79h3Yv3+fYECWJyQkICODywULhOm1tVxW3iKlo8p0JlOV6cNBV4sZ4vtLf3eqHYLPG+k9sn/FyhVw1GqF+WS4OrFCB9AYCezxU2I498sykUCr8sNoYM3OiODEi62dPcaODcPcuXPw5JIlWLVqJT76ZDmmTp+Jr77+C777bjM+//yPWLjwIanHnVgtDfVamEyZeJU8oIWGgzlnRzgwOWu51cDV1Q0zZ0zH/HnzMG/OfXhyyWJkZ6WLbsurP20Nwm5qeFFRHpJTzuDQoQPYumULtmzZIrISGRmJEydOIDExUQCnnrNkrKioEE3/JdA5WFKZTgxpqqYPZ/kvg/+jsgiWN1F66EGOwPjFHPFRj4fPbjHhkvGUIyZJrlpjL4hAjwsPl/byrFkzpVQNCw/HmOAQjBs/AYufWIzP/vgZNmzcIHklOjpG+h0PPbwAK1eskmV+8+bPw/jJE3H/ggew9JWX8ezzz0vPhQ0xZzdXODq7wFG6lC4g0zVONE6aOMLbxwfz5s7BwgcXyJsuy959C9XVpcL2mppSATwpKV5e06GkcC3ntm3bh35LNFjpMYHm5HD1MVccVIqes+PL6mW4pqtl4/+UTH8J7LuPSXuBYUFv0QGK9FyRQUFWViaeeeZp2HCUaWIiTCfb1alAjgcWL1okzH944UK8vHQpVq1cKQx+++03ETYuHHPmzseWrVsQExODpMQk+QfT09Oh2rr1f8Wbb72Bp559Ci++/BJWf7Eau/fsQcS+CFmg9c233+LdZcsw/8EFCAgKklEsgXdyUxzAiXaWmmPDxmLx449hyROL8OKLzyEycj/KygpBwLl0fOfOHdi6davYnj17JHkeP34cZ85wlfHZv5MV1uiMfgLOwadaMv6SppOww5n+z9g+3AHSz+cNqgP4MIYS2U9NKy8vw4YNGzBr5kzRd1YolJcnn1iMdWvXysCMq4EjIiLAsD1+/Jgsz961eycmTpqIefMeREpKivxzhYWFKCkpEe1kpcASrai4EAkJ8VIvp6SmSs3M6+Pj40UCmOyY9LZv344vv/4Kz7/wAiZMniwDKkoPkzOrnEWLHsPy996V6dCNG9fjSNRhSZoEnVrOKo6/79ixY/JsleX8TWQ563OWiiy3VcBZLhIHtXqhLN+t6cTt3wH8H4LPB5H9/ALVARwW0/MV5eUyiouNPY6EM2eEwVmZmVJyZfK1zMxMCVnKFZNTckqSLJpdsGChrNHnP8ceB8OY2nm38TjLNo4OS0tLQVAoAYyQpCQOak6BTI2Jjsa2rdvw5ptvYcasWRg/aSJeeZVLQ9bIkvBt27eJowj4wYMHceTIEcTGxgrDCXh2drY8m45n8lRZzkER/1dWLZQVFXBVz0lKYqOayvbhYP67+3feRhzO/rsdQPAZBfyB1D8VKPYuqqurxbjPf0YFmQ2lZe8tw3vLV6ChoVFCmPeTVXx5gs9Tjcd4jmWb+nw+h8+U6CgqkhxEeSCArECo0QT2wEGlFIyKisLRo0dE3pg0eZ5Oo/PoRDqT0cZnkgR3s1wFfXgCHQ64CraqEP8bxqtOuuf2sDfQb95W3p7mW9Q3bt7A9RvXf36z+9KgvGXd138ePX096OruQmdXJzo6O9DRpRg/d/d0o6e3B929PWhrb0NrWwv6zvfhwuAFXOS7TpcGMXj5krwpzrfF+fni4EVcGLyIgQsD0nLl/Xx+e2cHWtpa0ahrlBeLK6sqUVpeisKiQuTl58lq6sysTKRnpCMtIw0ZZzPAzzl5OeD7A8WlxSiv5GqxGnlGS2uLPJO/kb9p4OIF+X6+uX7l2lVcu3FN3iL/4eYP+OHWD7iDx+2b8kLzzdu3wHbM7Z/++dvl/+ztc56/p/VaO1qvdYi1XG1Hy5U2tFxpR/OVNjRfbkXTpRboaIPNaLzYhIYLOtRf0KFuoBF1/Q1Dxn3F6gca5XzDxSa5h/fyvkbeP9isHBtUnsdnynOHzinPb7rz/Nr+BtT01aOqtxaV3dUo76pCaXs5itvKUNRSgnPNxSjQFSK/8RzyudUVoqCpCIXNxXINry3vrERFd7U8o6avDnwmfzv/B34fv5//Y9PlVvl/+X8rGLSBeAgO6rGrP2OlYva/2f43M1FEHRj+o8YAAAAASUVORK5CYII=;" vertex="1" parent="1">
          <mxGeometry x="445" y="676" width="119.78" height="58" as="geometry" />
        </mxCell>
        <mxCell id="Z-BFIiCPnP5V-GsEb7PY-5" value="" style="shape=image;verticalLabelPosition=bottom;labelBackgroundColor=#ffffff;verticalAlign=top;aspect=fixed;imageAspect=0;image=data:image/png,iVBORw0KGgoAAAANSUhEUgAAAE4AAAA+CAYAAACFiC3cAAAeu0lEQVR4AdWch3tUZdqH95/5rrVRQy9KUXGjAtKsqGvZtXddy4oVsSGCiKIIKqtITU9mJtN7772kFxJIQocE8P6u550MBGVdAbc4ud7rnCmZOeee31Pf98wfPH1B+gb7OXn6JKdOn/rvjh9Pc+rHU+pYBk8OcWJokGMnjtE/0E93TzcdnZ20dXRQaGoiFo/h9rgxWczoDQb0RoPatzvteP1ekqkErW2ttHd20L23m6PHjzF0cki9/6Wc55GTR3H3BfiDpz9I/+ABTv/4I//p248//sjp06c5efIkx48f5/Dhw+zv209rWxvxRBx/MIDT5cJkNtGoN6DT6c+MxkYDBoMBs9mMzebE4XDhcg0PpwuHzYbVYlHPWyxmBTmXy6nPkc+92NuxU8fPBXcpb3YxB3Hq1Cl1Evv376e5pYVwJIrd7kSvN1DfoKFBo0Gr1SlgJrMFq92Bw+nB7fbi8fjwegP4/QGCwTDhcIRIJEo0GiMSiRANh4kEQ4T8PvxeN263C5vNpiBmMjkGBwcv5pDV/5wFJ6Z6YkCZqHz7/65bSV3Hjh1DYGWzWYLBoDohvd6ITmegsdGI2WRTCnK6PAqQ3x8kEAwTCkUIh2OEw9Hh/ajaj0bjxGKlESMaiRELh4mFQkQCPkJ+DwGfF5/Hi8vpwu320d/ff9GneQac2Gu2M0cilaKzswtRwm91E1glYEeOHKG1tVXBEvMSNel0OoxGE1arA5fLhz8QIhQqwolERD0xItE4kUhcARFI8lgRYlTtC7RoNEpUKS5KNBQhGgwQCfgJ+72EfB6CXg9+rxeP24Pd5qSrq+uiT/EsuP0B/MkQOqMZMYnm1ubfBJ4Aky+hr6+PWCyGyWSioaEBjUaLwWBUqhJzEwUJjFgsgYApDblfGolEimQyfWakUhnS6awa8lw8FiUWCROPhIiHAsSCPsJ+j1JbEZwLv9eFx+XA7fKwb9++3wZcqjVHMBLH6fbgdDo5cODARb1xCZaYY09PD6FQSKmqqqqKhvoGDAaTcuKBQEgBkpNWJx5PnoEUjyfVYwJH/FEu30Sh0ExTc6sazc2tNLe0IdtcrkAiniAa9BMNeIeHh5DPRdDrIuBx4fe48HmdCprTZicaiSjfelEnCJyjuHR7nlgqiz8QxOF00N/fd8HvK+qSqNjW1obH41bqqqmpQavRYrFYlFMPhaIKUDx+FlgJVHJYRQKqqbmFltZ22to76eiUNKSb9o4u2tu71GMCTqBKUPC43fjcdoIehxp+lx2vw4pHDRtupx23247DbkXA7evtVe7jgk9w+B9+Ai5HPJnF6w9gd9iV8yz5p9J25AeVHpNgMjQ0pPKsfCGv1CrmWF1do0zSbLYoBy/mGI8VlVRSmWzF/MTk8gpWK61tHWdgdXXvpbu7h+69Pezd20tP73727etn374+9u7tUf44l8/jdbnxuOz43Da8TituuwWX1YRThs2Ew2bB4bBiNhuIhMPKfcjxX+ztXHBteWLJDB6vH4PRSKHQxMCBAxw8eFCpSEzvxIkTKowLKMm55Dkxx2QqhdlqoaauhorKSurq6jEaiwpTwIZNrwQsPgxMFJMvNCuza2/vpLNrL53dPXTt7aGnt4/+gQPqs48cOao+b3BoSOV7kvPJEIXLMcUjEewWE0ajDotZj9nUiNGgxWoxYLEYMMvWakTXqFFB5FKgCexzwImPiyZSuNxeNNpGtI1G9EYLJrMVi9WqklDJnSRv8vkDuN0ejEYzGo2Guro6amrqqK/XYDKZ8Xp8yuErxz4MTWAJOPFb2WyepqYWpS4xPzHD7p4e9vf1cfDgIY4dP3EGjCi6pO7zKUTgZdJpdu3ayc49OzCYGnG67LjEXMWv+Vy4PQ7sdgu1dTWEwyGVcJ/vvX7tY+eCa8sRSaSQ3EmrM6DVGdFoGmnQaKmvr6emtp7qmjo1qmrqqKltUKA0DToMepOKkD5fgGg0oQAJJPFdpZFIppVPEmBtbR10dnYrhYnJ9fUPcOz48Qs2IYEqivMH/NTUVGG2GnF77fj8bgIBL4GAm1DQTzDgx+f3KKDhSEhZSukL+bWwRr7uXHCtOWKpDG6PV0U+UZNRLyWNXuVZZpMdm92N0+XD5fbj9vhV5h4MRIiEJfkcAWlYXSXTFB9WAiYKE5Ps6dnHgYMHlenLSVzoTZQmSbTT5USj1WAw6Gg0aLDYBJ4Dv99HMOgjGPLjC3ixO22YLXpsNjOhUICuzk4GB09cVJA4D7gsHq93GJQJs6ERi9Gg6j23y0soHCMaS6kRG1ZTIpGmOM5GyVK+JcAkXZC0QaKjAtYrwA4ppVwMMDHbE4MnaGltxWyxUFFZgdFsxmqzYjIbcbqdhMJBYtEI8XiUeCJCOBLE45WSy4zb7VDD5bSTz2Y5fOjQBcM7B1xSFJdM4/H5MBql7DFiNuixmozYrRY8bh/hSJxYIkUsLqMYIUuQSuqS+6X8S3KvUkoh0Pr6D3D8+AlOn774iDY0dJJCUzM6vR5tYyN2u135XakcpCkQTyRIJOOkknHSqTjptIwEmUyKdDpJOiVJdYSg34fX5SKVSnH0yNELgvcTcFmiibPgTEYjRkMjNksxnEtgCEt2n0iiHH1SlFZU2citQCuprHU4D+vp3ceRo0c5eerUBR3gT81XzFNaSjaHA5PFisfrUQl2TKDFYySSCRKpJMlUklQqQUaAZZNksymy2TTZbIZcNk0mnSItr5UyLRxBOiZHj/56eD8DF4+nkYxeakejwYDJ2IjNKooz43F7i5FSTDSZVmMksJLSBFoJWEdnF/39AwydPHlJwASgmHV3dzdmux2z3YbH5yUYCqpOSDweJ5GIkxSlpURVEr0TSmEZBS1FLpchn8+prYKYTpFJidVI7Rshn8tx7FfCOy84iYoWi001Bk0mIzarCbutmGJIPVmKkrItmelI05QEtr2jUyWuhw8f4dSp01y8YRY1J31CSVUsVhsGiwWnx6P6dMFwSNXAiUSCZDJRhJZOFhWVSZHJSOqTLSotJ5YgPjdNLpMil0mSzSSV8pKxGLFQkKZcnuPHjv3LL/ksuL4AmfY8qVSWZDKjOhQms1kV5TaLWYHzefyqQ1EqlUpq+2leJjlZ7/4+lYtdaqJZVNqPHDhwEJfXh85owuJ04vZJtAwTjkTOgFNKE2iZFNmMpD4CShSWU/BEcbl8mrwM2c+m1MimU2STCZLRCIlwhLaWVhW4funYz4CT1nnngW7aO7uIxFLEE2lcLjcWswW7zaJM1ef1E41Ijna2QyG1ZVaiZkubSmYlN1OmOTT0U/d00ffFN0ZicQXNYLXicLvwBQKEpIUUFwsQExW1DZvmOUoTtYnKpKTLKnC5fIp8rgivCDBNVoCLqUcjxCIR9nZ3q5zynx30OeD6BwfYu28fTm+IeDKjfJ3dalOFsRTHPp//nOR2ZBCQyNnVtZdDhw5z8uSlBYDSwco3LqWdlGR6kxW92YrV4cDt9RAIBglHIwqcmKlAU+AySZRPUyYpwER14tuK4ARUPp+hkBse2Qx5CRpitskE6USMWDRMMhE7U6uXjmfk9iw4NecwQHdvL3ZPUBX70hR02h24HDZcjmLIlxJKTFR828jIKUoTf3YxednIAxq5L++1r3cfVptDVTFmq12pTdIlaVVFSuDEzNJJUiUzzcqxiYmmhxUmsMREMxQEoMDLZYvw1P30sMmKv4uTjEkjNKgCi1Ql5zPZn4Hr2rsXm9tPIpVVxbAkiWo4bAT8gTO1phTnktRKIJDIKUX4+T5gJIgL3ZcmgrS4GjQ6DAazSkHc0v72B1T3NxKLFXO2dLIIrmSq4rvENJW60uQLxVFoytBUyFLIF1UnzyuQcj8nqitG4lQsSiISIhzw0d7efl4xnAWn5hz66ejqxur0k0j8FJydYCCklCYFeqFJemVtKnqK0n5raKI2ydfqNDrqtY0YzBZsEhRk4kX8m3SMowliKtk9a6qp4URX0o1iBM0ocAKtUEhTyKcpiH87EyCKaszlxcQlv0uQSkRJRsNEw0HV8DwwcOBn53cOuI6BLuXoPT4BlCEcCuF22YvDaScSiqgiXbL2YgnVwaGLKFf+lfLkSxC1CaiKmloa9HqMVit2twtRnPi3UDhCNCZVwsj8rRgciomugCumH4VCBgGXLwxDlOCgVCZKKw4xa1FcRkxezFVKtXCYcCBAUz6vfO3I4z4DTiZr8t1NJJLFSiAWjeH1uBQ0l9uGx+0iEU8qRy3tazFRSRF+S59WOjB5z6bmZgWtuqEBrZR/dofK3bx+P4FQUKUhxYgaU478bFSVCqGYu5WCQkHMU8y0ubgtKu8sNIEn1YSkMBJdJcgk5QuJyPSiX00zyvzEyHP9CbhmUukMiURStaKdEhScNtWK8fv9xR7acK9///7+XwzXJQgXuhW1nTh+AoPRzK6KKuq0OvQyn+p04VK9wBChcIhIJEw0Jh3lmMr8Jfs/m45IaVVMPSSaCjiB1tySo6k5N2yy4uskQBSDRF6qC5X/pVQtmxpOTaKhAKGAX5m9WEHp9jNw6XSOSDiCzWJVaYiAk5lxiaYyByAmKv2zwcEhLqHzXPr8n23lW21pa2P7rj1UVNdRr2tEb7YNgwsQCIQVuHA4rIJXKYcTxUm5VSrmlX8TP1bI0dSUU9AEXHOztLfE3w2DU/DSFLJJclLTDpurRNdUNEosLEHCTzgUUC2ski8/B1yhu4V0Oq98m9UiZZYFUV1RbQWaW9tVMJAWeukNfnbml/jAicFBHB4PO/bsoaKmnjptI40mK2ZZ2uCRZmSAYEhUFy7O1kthrwp6MbE4xeBQrBjyhSzNzU00N+dpbs3R0ppXAFsEnoArSCWRIp9NUsgkyYvipH4t+blEjHgkTDjox+/z0NxUUL5Ozv1ccHtbSGdyKkcScA4ppN0eNUPe1CyVQScHDx3+t0ET5vv271ewdlfXUlGroU5nQGeyYrQ5sLlcxaohGEBqVAVPZu/FH6WklRQjFY8WS61CXgFraWumpa2JtvYm2jqaaW0rFAE25xU4ia4SGM7CSyo/J60nUXDJzwk4mVIsBcOfgGsmky1Ot9msFlwOJ8FAmEwmT2trBwMDB1XBfomi+qf/Lt+klG+VtfVU1tZRVa+hQeY9RHElcB43br8Xn8ALhdRak4hMRIdDJKorSW7eQlqjJReL0RyP0uL30JaM0tGSp6Otifa2Aq2FDM2SlmSL0VWBk6I/nSSXTpCTfFAiayKqFCcrAoIBmWvxqdl/cSfngGvaK+AKRMJR7DYbPreXWCROU6GZvn9TMBhJUcorfzDErspqZE6jTqtFZzBjNNuxyGIbtwun14fH71e5nIALRiKE43HilVUkn3me1Cuvkn7hRbIbNtD0j+8orHyHlh+20W6z0Faxh1ZjIy1mI831dRRsFqU01asbDgxiptJqUimJgJN8LlQE5/V4SKfTahLpXHA9LWQVuBhOh4OA10cmlaZvf5+qP0ee5G+9L2oTM5C0Y2dlDZW1DdRp9egMFgwW6b85VR7n9HqLSXAwoNKSkPigTJrY2vUkn36e5LpPSD/6OOl77qVpy9c0rXyXlk8/pXXTJppf+TvNq1fTsnUrhQ/XUGjUoaLpiBwunToLLhGPqOUUUckb/X68Hrfy9+Ljj546VlzmJXlcU08LMrkry6QkksajUfb37lOEf2tQP30/6bf19PbSaDKzu7qOqjqt8m9ao4XGYXA21zA8nwdvwKfMVXK6iCiuopLk2++Q+mozmW//QW7HdlriUdpdTrq8bjpNBrr0WjqMetrNRlrq6mgK+Sk0FTsnpWiqUhqVx8VIqNIrrBbvhP0+fF43LpeT3t5ejp78CbhsLq8Wv8jcqUw0j0z6fnqyv+V9aYm3trahbdQrH1ddpykqzmhBb7FjcjixOh1KdS6vB2/Qjy8UICA5XThCPBoh2agnXV9PThqSLU20tjXT1d1GT28n+3q71OjZ20F3Vxsd7c20NMvcruR7mWL/TtrpZ8w0RjwmihNwfrVwR8A5HXaaCgWODMmKTD9/KCquVQUH6fJKUBgYGPgt2fzie4l/y2QzNGi1VNU1UDUMrtFoGfZxTqwSVSU4iLn6PLg8LjVJ7pJFQm43Vocd6VjLslajDLNRrS6w2q04HHacTpndcuLzFedcZX41Fo8QiUkzNEwiHlW+Tfm3ZFzNkEXDIaW4oAQkr0uBk1VRh04cxnU+cH5/iL6+i19494uUzvPk0aNHCAT81DUItHqq67XU6/Q0miwYLTZMVhtag4mq+gZ2VVXy7bZtbPjiC9as/5QP133CB2s/ZuWHH/LGe+/x+qpVvLbyHVa89Q4rVq7kjVUreWvVu7z17gfqNe+t+YjV69bx6ecb2bhpE599tYlNWzbxw/bvaWiow2w24Xa71Yy/9OYkYocCsijRpTpFPq+HvsN9Z8E197Yipipr02QF5P79F75a6TxMftVDBw8ewOG0UddQT019A7UNWgVp267dfPn1Vj5ct57X332fl998mxffeIOX3nyLV1eu4u0PP+S9tR/x0Scf8/GGT/l00ya+2votW7d9z7btO9i+exe7K3ezu3IPOyr2sH3XDrbt2M7W779n09df8/mmL/n0i42s3bCe1Ws/5p333+f1lW/z3ker2fDZZ2zbvh2tVqNq9oDXrWp2h8NBd9/ekeDayOULClwwGPqPmurAQD9Wm4UGTQPVNbVs/norb777Pk++9BKPPPs8j//tRZ5/9XVWrVnDxxs/45ONX7Bl6/fsrKhgT7WMSnZXVVBRU0VtQw0Nmlq02joMeh0mkx6TWY/BqEPfWI9OW0+Dpo7qWnltLY16LXq9jj2Ve9j8zRY+27SR9Z9/ypur3uJvK1bw4t9f5aM1H1NZsUeZvM1up3VvG679fv7g6QvQsq+NfKGJeFzaM+lLWnj3q2Q2/CIJQLKs1Ggy8+133/O311Zw32OP8cBjT/Lcq68pVa3/8ku++vobdu7eza6KXQpWTV2tWkRTXVupAOgMWvRGLUZTo1rOZbEYsVplNbpZLbiRZV5Oh1kt97LZrVjtZswWI3q9Fq2mhrraSurrK9Fq6tT+rt0/8P32H/ho3TqefvFl/vrYE7yz6l10Wi3xbKIErjhZ09XdTUtLy380op4+fYp8ocBnm77ioaee5f4nnuTZFSt4b81avvjqK/6x7Tt27NqlFFFZtYfKmgpq6quob6hVPqlBq6G2vo7aelFaHQ2aenQ6WfmpV8HCarUgoNSwGrGYDRiNevSy1qRRQ2NjA0ZdPcbGBvS6WrSaahrqq6irraC6ag+7du9gyzdbeH3lSu66/wGef/kVLG47zv2+4nUO+4/3c/zECSTBk/TgP3UTcJKPicL+/MjjvLP6I77ZupVdu3ezu6KosJ17drOnsoKa2mrqGuqo19QpcLJCSXzWF5s3s3b9ej5Y/REr332fN956m1XvfcC6T9bz2Rdf8uWWr9m46SvWfbqe1R+tYc3Ha1m/YQNfbfmKbdu/Z8+enUplYt5aXR0aTS31dZXU1uyhumoX1VU72bFzG6+9tZIly+/h290/4Nw3DE5muU7/eOGrhi4VsJiq1+/j/kcf5Z0PPqS6poZ6UVBtFZXVRYVpdBrqG+rZuWuXMtkPVq/hxVde5clnnmP5Aw9SvnAxs64rZ+as65g5ex7T5lzPQ088xxebvuHb77ax5Zt/sOHzzbz6xkrmXH+jet2cG25mwbLbuffBv/DoE0/x3AsvsOrd9/j8yy+orKpAJxA1NQpeXc1utf/Dtm389YmnqNDVnlWcXFnz72oX/RJc+Uy5bGjtp5+wa89OFfJ1ei0aXT1Wq0ktEKyurebDNR/z8FPPsPSue7lh4TJmzZvPzOvKGTd1JpePmcAVoycwasxExkyczoRZ17Ls7gd47qU3eOnvb3Lfg49xx/IHuGXJXYwaP4U/XjmeK8dNpmzGLKbNuZa515VzQ/nNzF+wmNvuuofnXnyJrVu34nbYsJn16DQ1mA1aNA11fPv99yOCw/AlSf8NcAJVEuC29lbVspZlWQ63nXgspDoUW7dt49FnXmDxnfdyw6JlzJ2/iDl/WsicefO5+rpyyibP5Mqxk7hq3GRGj5/C2MlXM2nWPOaUL+DGW26lfP4S9ZrLRpVx2VXjuWyUjAlcNX4q4xW46ymfv5iFtyxj4eJbWXzrHdx61708+MiTfPPVFuLhAH63Xa0rlnaTLO89PHikmI6UruX6b4H7keJFJDKP2dneSiGXpLujRUXEtz74kPsee5Zldz/EjUvvZO6CZcwpX8ScGxYwY+4NjJ4wjSvGTuLK0RMZPXYKYyfMZOy0WUy85jpmzL6B6TOvZcy4KQi4y0dPUNsrxkzkqrIpjJt2NVOumcsNNyxk0aLbWHTbXdx57/389dHHefGVFWz8/HPikSDZZIymXPbMupIz3ZH/NriSKcsXN3jiOPt6u+nuaiUc9vHlli08/fKb3H7/Y5QvvYO5C5cy+6ai6q6e8yeuKpuKgBAVKSBjJ6vHxk65mrKpsxg/aSZXjZ2koF0+ehJXjJnAlWMnMrpsKmVTr2HyzNnMua6cBYtvZdEdy1l+3194+vkX2bBxI0Gfm+Z8ht693So9Kwnrfw6cAJSDGxoa5ODBATo7WjEYDax8fx13P/gE85cu5/pbbmXuzYu5tnwhAm5U2VQuHz2RP15VVlTT6AmMHjNZqWxs2XRGT5iuzPiK0RO5fNREZdZi2qPLplA2ZSZTZsxm9vXlLFxyK8tuv5t773+It1a+S6NWR2tTgUMHD3BySOZYzq65+p8EV1KfpCly0H5fgE8+28x9jzzLotv/TPmi27luwRLm3LiAWdfexNiJ07lcFCfgrhyv/Njlo8Zz+agyxoybqhRXNmkmY8ZPLQYRMdOxkxgzfgrjJ81g8rTZXHv9jSxdciu333kP9/31EdatW4/H4ebQgYPnACsd2/80OGW2g4Nk0jm2btvJQ8++zJLlf+XGxXdy/cKlzL15EbP+tJAJU+dw5ZhJCtRlV5apiPnHq8bzx1FljB43hQmTZjJh8kzGTpiuIqk8J+qTQDJ+4nSmTptN+bybWLz4Nm67+888+NgTbNn8DalY8mcT0b8LcCWz7dnbS6POxN9eW8WtDzzC/Nvu4U+LbmXegqXMvWkx02fP48rxkxUMCQCSaqghgJSypip1jZKoO3aK8oPiC8VUx02axrQZs5hfvoBblt3O7ffez7MvvEzVnmo62zr/aT/yf1pxpW9XWuqy3GHdxs088PjzLLv7L8xfdjfli+7ghgW3ck35AsZNnslV4ycpUxQTFVMVs5VIKyZ65bhJjCqbwtTpcxg7YZoKFJK+jCmbxoyrr2X+zYtZfNty/vyXR3j//dV4nW4O/8KM3u8CnFx6JNfhaxtNvPT6O9zz0JMsvetBFi67h5uXLueGJXcw47qbGDdlJmMmzmDMhOmMGT+Z0WWTlamOHT+VMZNnMunquUyfNW/YJ05Q5j22bBpXz7qem+YvYsmdy3ny2efZsX0HzfmmX5wy+F2AE18nVySmUxn+sW0nj73wKnc9+DjLlv+FpXc+wJI77+OmO+5h9o23MHNOOdfMlZJqnsrPlF8bM4mryqYxdtLVjJ00Q/m5y8eUqegqz0+fM4/y+Yu48577Wf3RWgIeHwfPs0KpZAGy/V2AkwOVpoMsfAmGIqz/YguPPv8Kdz/8lEpR7n3wMf786DPc8/DTLL37QZbdeR9L7riX6xcsUYq7fNQElYaUUhHJ4y4bPUEBnDB9Ftdc9yduvGUZz77wCpoGLd2dnZwcOjmS08/2fzfg5MjlwhC57F0uRP748y956qU3ePjZV3j02ZfV/uvvruH9tZ/x0oq3eeKFvzPv5iUqn7tiVDFVkZRF/NoVYydz5ahJjJswgxlz53HdjQu598GH2blzN4V8QV0iNTJn+xm135Pi5OBVejI0hPQM3R4fX276hhVvr+bF11ax4s33MJpt9PcdUHPDsjr99Xfe5pnn/8ZDjz3JU8+9wGtvr6L8lmUqSb5q7ESmzbqW8ptu4eFHHqVi906a8gWOHTu7Iul8wEqP/a4Udwbe4CC9vT3EozF27qxk3YZNrF2/kXQmq05cVlLJxW1Hjx1m4EC/uj5CfvFB1qU8/+Kr/N9lo5h89WyWLr+bFa+9jra2no5fsUS/BE22vztwJXgnTw6pi9fa2toJBaPs3LWH77btpLHRTDgUo71NVoseVteNyaVGvb371fKOV159m2lXz+bxp57m62++xe/z09PdrUqqkWD+1f7vElzppKQkO3FikMMHD9He3oHd4eKbrd+z4fNNbN26nbpaDTqtkYZ6nVLm5q+/48OPP2Hz19/idrrVhSBy5eCpi7hc6hxwfYMDnPpRLh/6/fzJ0gn5jaSTp06qln9Pb4+aVJdfvpFfw3E63QqS/FCL/OhBU1OBgQMDqtMh+aF0vMV3XujfOWtHvP0h/P1h/AOR39foj6jj9vWH8faF8OwP4u7145LRMzx6/bh7A+o5X18Iee2lnKv8v8zk/z8VgKDXemWoQwAAAABJRU5ErkJggg==;" vertex="1" parent="1">
          <mxGeometry x="705" y="668" width="93.1" height="74" as="geometry" />
        </mxCell>
        <mxCell id="Z-BFIiCPnP5V-GsEb7PY-6" value="" style="rounded=0;whiteSpace=wrap;html=1;fillColor=#99CCFF;" vertex="1" parent="1">
          <mxGeometry x="185" y="250" width="870" height="370" as="geometry" />
        </mxCell>
        <mxCell id="Z-BFIiCPnP5V-GsEb7PY-7" value="边缘计算层" style="text;strokeColor=none;fillColor=none;html=1;fontSize=24;fontStyle=1;verticalAlign=middle;align=center;" vertex="1" parent="1">
          <mxGeometry x="205" y="420" width="100" height="40" as="geometry" />
        </mxCell>
        <mxCell id="Z-BFIiCPnP5V-GsEb7PY-8" value="" style="rounded=0;whiteSpace=wrap;html=1;fillColor=#CCFF99;" vertex="1" parent="1">
          <mxGeometry x="345" y="500" width="690" height="90" as="geometry" />
        </mxCell>
        <mxCell id="Z-BFIiCPnP5V-GsEb7PY-9" value="&lt;font style=&quot;font-size: 24px&quot;&gt;厂家&lt;font&gt;SDK&lt;/font&gt;&lt;/font&gt;" style="rounded=0;whiteSpace=wrap;html=1;" vertex="1" parent="1">
          <mxGeometry x="375" y="520" width="120" height="50" as="geometry" />
        </mxCell>
        <mxCell id="Z-BFIiCPnP5V-GsEb7PY-11" value="&lt;span style=&quot;font-size: 24px&quot;&gt;GB/T28181&lt;/span&gt;" style="rounded=0;whiteSpace=wrap;html=1;" vertex="1" parent="1">
          <mxGeometry x="535" y="520" width="130" height="50" as="geometry" />
        </mxCell>
        <mxCell id="Z-BFIiCPnP5V-GsEb7PY-13" value="&lt;span style=&quot;font-size: 24px&quot;&gt;Onvif&lt;/span&gt;" style="rounded=0;whiteSpace=wrap;html=1;" vertex="1" parent="1">
          <mxGeometry x="705" y="520" width="130" height="50" as="geometry" />
        </mxCell>
        <mxCell id="Z-BFIiCPnP5V-GsEb7PY-14" value="&lt;font style=&quot;font-size: 24px&quot;&gt;协议转化器（控制协议、视频格式）&lt;/font&gt;" style="rounded=0;whiteSpace=wrap;html=1;fillColor=#CCFF99;" vertex="1" parent="1">
          <mxGeometry x="345" y="405" width="690" height="60" as="geometry" />
        </mxCell>
        <mxCell id="Z-BFIiCPnP5V-GsEb7PY-15" value="" style="rounded=0;whiteSpace=wrap;html=1;fillColor=#CCFF99;" vertex="1" parent="1">
          <mxGeometry x="345" y="280" width="690" height="90" as="geometry" />
        </mxCell>
        <mxCell id="Z-BFIiCPnP5V-GsEb7PY-16" value="&lt;span style=&quot;font-size: 24px&quot;&gt;ITT&lt;/span&gt;" style="rounded=0;whiteSpace=wrap;html=1;" vertex="1" parent="1">
          <mxGeometry x="875" y="520" width="130" height="50" as="geometry" />
        </mxCell>
        <mxCell id="Z-BFIiCPnP5V-GsEb7PY-17" value="&lt;font style=&quot;font-size: 24px&quot;&gt;红外分析&lt;/font&gt;" style="rounded=0;whiteSpace=wrap;html=1;" vertex="1" parent="1">
          <mxGeometry x="375" y="300" width="120" height="50" as="geometry" />
        </mxCell>
        <mxCell id="Z-BFIiCPnP5V-GsEb7PY-18" value="&lt;font style=&quot;font-size: 24px&quot;&gt;报警联动&lt;/font&gt;" style="rounded=0;whiteSpace=wrap;html=1;" vertex="1" parent="1">
          <mxGeometry x="540" y="300" width="120" height="50" as="geometry" />
        </mxCell>
        <mxCell id="Z-BFIiCPnP5V-GsEb7PY-19" value="&lt;font style=&quot;font-size: 24px&quot;&gt;视频分析&lt;/font&gt;" style="rounded=0;whiteSpace=wrap;html=1;" vertex="1" parent="1">
          <mxGeometry x="705" y="300" width="120" height="50" as="geometry" />
        </mxCell>
        <mxCell id="Z-BFIiCPnP5V-GsEb7PY-20" value="&lt;font style=&quot;font-size: 24px&quot;&gt;报警过滤&lt;/font&gt;" style="rounded=0;whiteSpace=wrap;html=1;" vertex="1" parent="1">
          <mxGeometry x="875" y="300" width="120" height="50" as="geometry" />
        </mxCell>
        <mxCell id="Z-BFIiCPnP5V-GsEb7PY-22" value="" style="rounded=0;whiteSpace=wrap;html=1;fillColor=#99CCFF;" vertex="1" parent="1">
          <mxGeometry x="185" y="70" width="870" height="140" as="geometry" />
        </mxCell>
        <mxCell id="Z-BFIiCPnP5V-GsEb7PY-23" value="云端分析层" style="text;strokeColor=none;fillColor=none;html=1;fontSize=24;fontStyle=1;verticalAlign=middle;align=center;" vertex="1" parent="1">
          <mxGeometry x="205" y="120" width="100" height="40" as="geometry" />
        </mxCell>
        <mxCell id="Z-BFIiCPnP5V-GsEb7PY-25" value="&lt;font style=&quot;font-size: 24px&quot;&gt;监控视图&lt;/font&gt;" style="rounded=0;whiteSpace=wrap;html=1;" vertex="1" parent="1">
          <mxGeometry x="375" y="110" width="120" height="60" as="geometry" />
        </mxCell>
        <mxCell id="Z-BFIiCPnP5V-GsEb7PY-26" value="&lt;font style=&quot;font-size: 24px&quot;&gt;视频存储&lt;/font&gt;" style="rounded=0;whiteSpace=wrap;html=1;" vertex="1" parent="1">
          <mxGeometry x="540" y="110" width="120" height="60" as="geometry" />
        </mxCell>
        <mxCell id="Z-BFIiCPnP5V-GsEb7PY-27" value="&lt;font style=&quot;font-size: 24px&quot;&gt;报警分析&lt;/font&gt;" style="rounded=0;whiteSpace=wrap;html=1;" vertex="1" parent="1">
          <mxGeometry x="710" y="110" width="120" height="60" as="geometry" />
        </mxCell>
        <mxCell id="Z-BFIiCPnP5V-GsEb7PY-28" value="&lt;font style=&quot;font-size: 24px&quot;&gt;统计分析&lt;/font&gt;" style="rounded=0;whiteSpace=wrap;html=1;" vertex="1" parent="1">
          <mxGeometry x="875" y="110" width="120" height="60" as="geometry" />
        </mxCell>
      </root>
    </mxGraphModel>
  </diagram>
</mxfile>
